REM DIRINDEX 1\2,1\4,1\5,1\6,1\7,1\3\8,1\3\9,1\3\10
REM DIRNAME cjc113,folder01,folder02,folder03,folder04,folder05,folder06,folder07,folder08,folder09
TITLE ""
FILE "DB4500_5th_2A_43.mp3" MP3
  TRACK 01 AUDIO
    TITLE "8:cjc113_1607"
    INDEX 01 00:00:00
  TRACK 02 AUDIO
    TITLE "0:"
    INDEX 01 00:01:22
  TRACK 03 AUDIO
    TITLE "9:cjc113_1608"
    INDEX 01 00:01:42
  TRACK 04 AUDIO
    TITLE "0:"
    INDEX 01 00:02:67
  TRACK 05 AUDIO
    TITLE "10:cjc113_1609"
    INDEX 01 00:03:15
  TRACK 06 AUDIO
    TITLE "0:"
    INDEX 01 00:05:63
  TRACK 07 AUDIO
    TITLE "10:cjc113_1610"
    INDEX 01 00:06:14
  TRACK 08 AUDIO
    TITLE "0:"
    INDEX 01 00:08:73
  TRACK 09 AUDIO
    TITLE "8:cjc113_1611"
    INDEX 01 00:09:44
  TRACK 10 AUDIO
    TITLE "0:"
    INDEX 01 00:10:59
  TRACK 11 AUDIO
    TITLE "9:cjc113_1612"
    INDEX 01 00:11:07
  TRACK 12 AUDIO
    TITLE "0:"
    INDEX 01 00:12:40
  TRACK 13 AUDIO
    TITLE "10:cjc113_1613"
    INDEX 01 00:12:60
  TRACK 14 AUDIO
    TITLE "0:"
    INDEX 01 00:15:70
  TRACK 15 AUDIO
    TITLE "8:cjc113_1614"
    INDEX 01 00:16:42
  TRACK 16 AUDIO
    TITLE "0:"
    INDEX 01 00:17:59
  TRACK 17 AUDIO
    TITLE "9:cjc113_1615"
    INDEX 01 00:17:74
  TRACK 18 AUDIO
    TITLE "0:"
    INDEX 01 00:19:26
  TRACK 19 AUDIO
    TITLE "10:cjc113_1616"
    INDEX 01 00:19:50
  TRACK 20 AUDIO
    TITLE "0:"
    INDEX 01 00:23:36
  TRACK 21 AUDIO
    TITLE "8:cjc113_1617"
    INDEX 01 00:24:06
  TRACK 22 AUDIO
    TITLE "0:"
    INDEX 01 00:25:25
  TRACK 23 AUDIO
    TITLE "9:cjc113_1618"
    INDEX 01 00:25:46
  TRACK 24 AUDIO
    TITLE "0:"
    INDEX 01 00:26:66
  TRACK 25 AUDIO
    TITLE "10:cjc113_1619"
    INDEX 01 00:27:12
  TRACK 26 AUDIO
    TITLE "0:"
    INDEX 01 00:30:03
  TRACK 27 AUDIO
    TITLE "8:cjc113_1620"
    INDEX 01 00:30:50
  TRACK 28 AUDIO
    TITLE "0:"
    INDEX 01 00:31:61
  TRACK 29 AUDIO
    TITLE "9:cjc113_1621"
    INDEX 01 00:32:07
  TRACK 30 AUDIO
    TITLE "0:"
    INDEX 01 00:33:36
  TRACK 31 AUDIO
    TITLE "10:cjc113_1622"
    INDEX 01 00:33:58
  TRACK 32 AUDIO
    TITLE "0:"
    INDEX 01 00:36:74
  TRACK 33 AUDIO
    TITLE "8:cjc113_1623"
    INDEX 01 00:37:36
  TRACK 34 AUDIO
    TITLE "0:"
    INDEX 01 00:38:55
  TRACK 35 AUDIO
    TITLE "9:cjc113_1624"
    INDEX 01 00:39:00
  TRACK 36 AUDIO
    TITLE "0:"
    INDEX 01 00:40:62
  TRACK 37 AUDIO
    TITLE "10:cjc113_1625"
    INDEX 01 00:41:06
  TRACK 38 AUDIO
    TITLE "0:"
    INDEX 01 00:44:20
  TRACK 39 AUDIO
    TITLE "10:cjc113_1626"
    INDEX 01 00:44:60
  TRACK 40 AUDIO
    TITLE "0:"
    INDEX 01 00:48:34
  TRACK 41 AUDIO
    TITLE "8:cjc113_1627"
    INDEX 01 00:49:04
  TRACK 42 AUDIO
    TITLE "0:"
    INDEX 01 00:50:35
  TRACK 43 AUDIO
    TITLE "9:cjc113_1628"
    INDEX 01 00:50:54
  TRACK 44 AUDIO
    TITLE "0:"
    INDEX 01 00:53:51
  TRACK 45 AUDIO
    TITLE "10:cjc113_1629"
    INDEX 01 00:53:68
  TRACK 46 AUDIO
    TITLE "0:"
    INDEX 01 00:58:54
  TRACK 47 AUDIO
    TITLE "8:cjc113_1630"
    INDEX 01 00:59:24
  TRACK 48 AUDIO
    TITLE "0:"
    INDEX 01 01:00:37
  TRACK 49 AUDIO
    TITLE "9:cjc113_1631"
    INDEX 01 01:00:57
  TRACK 50 AUDIO
    TITLE "0:"
    INDEX 01 01:03:41
  TRACK 51 AUDIO
    TITLE "10:cjc113_1632"
    INDEX 01 01:03:61
  TRACK 52 AUDIO
    TITLE "0:"
    INDEX 01 01:07:70
  TRACK 53 AUDIO
    TITLE "10:cjc113_1633"
    INDEX 01 01:08:40
  TRACK 54 AUDIO
    TITLE "0:"
    INDEX 01 01:12:64
  TRACK 55 AUDIO
    TITLE "8:cjc113_1634"
    INDEX 01 01:13:34
  TRACK 56 AUDIO
    TITLE "0:"
    INDEX 01 01:14:45
  TRACK 57 AUDIO
    TITLE "9:cjc113_1635"
    INDEX 01 01:14:61
  TRACK 58 AUDIO
    TITLE "0:"
    INDEX 01 01:17:14
  TRACK 59 AUDIO
    TITLE "10:cjc113_1636"
    INDEX 01 01:17:33
  TRACK 60 AUDIO
    TITLE "0:"
    INDEX 01 01:20:22
  TRACK 61 AUDIO
    TITLE "8:cjc113_1637"
    INDEX 01 01:20:65
  TRACK 62 AUDIO
    TITLE "0:"
    INDEX 01 01:22:13
  TRACK 63 AUDIO
    TITLE "9:cjc113_1638"
    INDEX 01 01:22:29
  TRACK 64 AUDIO
    TITLE "0:"
    INDEX 01 01:23:65
  TRACK 65 AUDIO
    TITLE "10:cjc113_1639"
    INDEX 01 01:24:10
  TRACK 66 AUDIO
    TITLE "0:"
    INDEX 01 01:27:57
  TRACK 67 AUDIO
    TITLE "8:cjc113_1640"
    INDEX 01 01:28:24
  TRACK 68 AUDIO
    TITLE "0:"
    INDEX 01 01:29:58
  TRACK 69 AUDIO
    TITLE "9:cjc113_1641"
    INDEX 01 01:29:74
  TRACK 70 AUDIO
    TITLE "0:"
    INDEX 01 01:31:53
  TRACK 71 AUDIO
    TITLE "10:cjc113_1642"
    INDEX 01 01:31:71
  TRACK 72 AUDIO
    TITLE "0:"
    INDEX 01 01:35:51
